<svg version="1.0" xmlns="http://www.w3.org/2000/svg" width="341.333" height="341.333" viewBox="0 0 256 256"><path d="M51.6 77.5c-7.4 1.9-17.7 7.3-23.8 12.5-16 13.8-21.3 37-12.6 55.2 8.8 18.3 26.2 29.3 46.3 29.2 18.2-.1 33.5-6.7 48-20.6 7-6.7 8.7-8.9 7.8-9.8-.9-1-2.6.1-7.7 4.6-22.2 19.9-47.9 24.8-67.9 13.1-6.7-4-15.2-13.7-17.7-20.4-3.1-8.3-2.5-20.5 1.4-28.2 3.8-7.4 10.7-13.8 19.6-18 6.7-3.2 8.3-3.6 15.5-3.5 9.8.1 17.3 2.6 26.7 9 8.7 5.9 21.4 19.4 30.3 32 18.9 26.9 41.9 43.2 65.6 46.7 27.3 3.9 53.8-12.8 60.4-38 4.4-16.7-.1-32.8-12.5-45.4-20-20.2-50.2-21.2-76.5-2.5-6 4.4-17.5 15.9-17.5 17.6 0 2.4 2.1 1.4 7.1-3.2 12.2-11.3 25.5-18 39.6-19.8 14.5-1.9 28 2.6 37.9 12.4 19.2 19.3 12.8 49.7-12.8 59.9-7 2.7-20.1 2.9-27.5.4-14.4-5-30.6-19.6-45.6-40.9-13.5-19.2-33-34.3-52.2-40.4-10.1-3.2-23.5-4-31.9-1.9z"/></svg>